<?xml version="1.0" standalone="no"?>
<!DOCTYPE svg PUBLIC "-//W3C//DTD SVG 20010904//EN"
 "http://www.w3.org/TR/2001/REC-SVG-20010904/DTD/svg10.dtd">
<svg version="1.0" xmlns="http://www.w3.org/2000/svg"
 width="1280.000000pt" height="1280.000000pt" viewBox="0 0 1280.000000 1280.000000"
 preserveAspectRatio="xMidYMid meet">
<metadata>
Created by potrace 1.14, written by Peter Selinger 2001-2017
</metadata>
<g transform="translate(0.000000,1280.000000) scale(0.100000,-0.100000)"
fill="#000000" stroke="none">
<path d="M10535 12350 c-259 -38 -445 -95 -669 -206 -620 -308 -1005 -892
-1007 -1524 0 -105 6 -196 17 -253 2 -12 7 -38 10 -57 23 -131 88 -315 160
-449 181 -341 467 -610 838 -791 178 -87 416 -165 561 -185 16 -2 46 -6 65
-10 129 -21 479 -28 556 -11 12 2 45 7 75 11 375 46 798 239 1083 495 272 243
449 539 536 890 50 206 48 495 -5 724 -97 416 -399 821 -796 1067 -226 140
-471 234 -744 284 -137 25 -164 27 -365 29 -143 2 -227 -2 -315 -14z"/>
<path d="M5297 11124 c-1 -1 -29 -5 -62 -9 -59 -6 -108 -13 -151 -20 -12 -2
-48 -6 -80 -10 -95 -11 -389 -93 -524 -147 -305 -121 -608 -305 -825 -501 -22
-20 -46 -37 -52 -37 -7 0 -43 11 -80 25 -46 18 -96 28 -154 31 -448 26 -719
-454 -467 -826 105 -154 266 -245 454 -255 115 -6 216 20 318 84 253 157 315
494 137 751 -27 40 -70 87 -95 105 l-46 32 53 49 c190 174 495 359 772 467
162 63 172 66 326 106 117 30 210 48 304 57 28 3 61 8 75 11 53 13 504 11 580
-2 41 -7 129 -20 195 -30 112 -17 164 -28 275 -60 240 -70 332 -99 370 -117
25 -11 134 -60 242 -109 234 -104 649 -348 829 -486 63 -48 182 -138 264 -201
134 -101 198 -156 395 -338 30 -29 70 -65 88 -82 17 -16 32 -32 32 -34 0 -2
-17 -5 -37 -6 -21 -2 -108 -21 -193 -43 -434 -112 -987 -427 -1534 -873 -263
-215 -606 -541 -811 -771 -44 -49 -105 -116 -137 -150 -49 -52 -98 -112 -220
-266 -187 -235 -442 -600 -525 -749 -17 -30 -68 -122 -113 -204 -70 -126 -270
-559 -270 -584 0 -5 -20 -77 -45 -161 -42 -139 -62 -248 -80 -431 -4 -41 0
-114 10 -195 16 -120 20 -136 68 -229 28 -55 64 -112 80 -127 l30 -27 -65
-129 c-36 -70 -75 -146 -88 -168 -68 -122 -161 -273 -226 -369 -41 -59 -71
-112 -68 -117 3 -5 1 -8 -5 -7 -5 2 -53 -53 -106 -122 -53 -69 -127 -159 -164
-200 -37 -41 -92 -102 -121 -135 -30 -33 -61 -67 -70 -75 -10 -8 -71 -65 -136
-127 -237 -222 -636 -496 -874 -599 -52 -23 -144 -63 -204 -89 -61 -26 -189
-69 -285 -97 -238 -66 -276 -76 -346 -83 -33 -3 -71 -8 -85 -10 -14 -2 -61 -9
-105 -15 -44 -6 -93 -14 -110 -17 -16 -3 -122 -6 -233 -7 -222 -1 -213 -4
-225 59 -3 17 -29 70 -59 119 -45 76 -63 95 -123 137 -64 44 -76 48 -145 54
-70 5 -80 3 -155 -29 -471 -205 -824 -1258 -642 -1916 45 -162 109 -266 203
-332 64 -44 74 -48 146 -53 71 -5 82 -3 158 30 44 19 87 40 94 47 7 7 43 39
79 71 143 126 303 403 396 688 28 86 53 174 57 195 3 22 14 82 24 134 24 117
30 179 34 345 4 118 -13 328 -28 365 -5 13 17 15 176 13 149 -2 215 2 353 22
94 13 197 27 230 30 66 8 481 123 560 156 67 29 130 56 190 84 28 13 78 34
111 49 48 20 216 115 411 234 13 7 277 209 314 239 12 10 40 35 63 56 22 22
83 78 135 125 102 95 320 337 424 472 205 265 428 623 543 872 l26 57 34 -26
c23 -17 73 -35 156 -55 129 -31 124 -31 370 -13 48 4 376 86 400 101 4 3 49
-7 100 -21 101 -29 147 -42 368 -103 80 -23 179 -50 220 -62 41 -12 107 -30
145 -40 39 -10 171 -47 295 -83 124 -35 374 -106 555 -156 622 -175 707 -199
712 -205 5 -5 -82 -105 -209 -241 -25 -27 -55 -59 -65 -71 -10 -12 -52 -58
-93 -104 -41 -46 -83 -92 -93 -104 -10 -12 -40 -44 -65 -71 -26 -28 -85 -93
-132 -145 -47 -52 -89 -100 -95 -106 -33 -36 -171 -187 -187 -206 -11 -13 -59
-66 -106 -118 -390 -425 -390 -426 -408 -501 -13 -55 -12 -67 6 -140 112 -438
951 -964 1522 -953 141 2 224 29 294 97 46 44 52 55 63 115 12 61 11 74 -8
142 -58 208 -273 441 -596 645 -74 47 -137 85 -139 85 -3 0 -56 24 -118 53
-97 46 -310 122 -373 133 -11 1 -60 10 -110 18 -54 9 -133 14 -197 13 l-107
-3 97 105 c53 58 99 108 102 111 3 3 45 50 95 105 49 55 110 123 136 150 25
28 95 104 154 170 59 66 143 158 185 205 43 47 169 186 281 310 112 124 216
240 233 257 52 58 57 68 43 88 -7 9 -38 24 -68 32 -30 8 -67 19 -84 23 -16 5
-61 18 -100 28 -38 11 -104 30 -145 41 -41 12 -82 23 -90 25 -8 2 -87 24 -175
49 -88 25 -259 73 -380 106 -121 34 -240 68 -265 76 -40 12 -393 112 -430 121
-8 2 -80 22 -160 44 -80 23 -219 62 -310 87 -91 25 -167 47 -169 49 -2 2 23
15 55 29 33 15 77 35 100 46 22 10 43 19 46 19 17 0 452 260 545 326 62 43
145 102 185 129 259 180 817 683 1059 955 46 52 89 100 94 106 219 239 459
549 651 838 82 124 152 225 155 225 4 1 10 -11 13 -26 4 -16 27 -93 52 -173
80 -251 186 -500 307 -720 29 -54 184 -290 196 -300 4 -3 37 -43 75 -89 61
-75 136 -151 222 -226 35 -31 177 -133 219 -157 82 -48 220 -110 305 -138 222
-72 529 -93 725 -49 73 16 82 13 90 -28 4 -21 29 -76 57 -121 45 -75 72 -106
167 -190 46 -42 189 -103 275 -119 75 -13 111 -13 236 3 69 9 204 86 267 152
71 74 129 194 138 283 3 35 7 76 9 91 2 15 -5 60 -15 100 -11 40 -21 83 -23
94 -5 25 -114 204 -124 204 -4 0 -31 23 -61 51 -61 58 -204 132 -272 142 -24
4 -55 9 -69 12 -89 19 -222 -4 -328 -58 -186 -94 -294 -279 -288 -495 1 -33
-1 -35 -59 -46 -16 -4 -41 -9 -55 -12 -14 -3 -90 -7 -170 -10 -131 -3 -174 0
-305 21 -114 19 -298 85 -406 146 -38 22 -71 39 -75 39 -3 0 -28 17 -55 38
-27 20 -64 48 -83 63 -80 60 -207 186 -289 286 -113 139 -200 273 -290 448
-40 77 -75 142 -79 143 -5 2 -8 9 -8 16 0 7 -27 78 -59 159 -61 150 -77 196
-131 377 -18 58 -38 124 -46 147 l-14 43 84 152 c170 309 337 748 361 953 3
28 8 64 10 80 6 46 18 148 20 168 1 11 -2 47 -7 80 -5 34 -13 94 -18 132 -7
54 -20 93 -62 173 -51 100 -56 106 -146 174 -90 68 -95 71 -215 100 -87 21
-137 28 -175 25 -46 -5 -56 -2 -80 20 -157 146 -222 205 -247 228 -16 15 -52
48 -80 74 -52 49 -112 96 -375 296 -212 161 -274 206 -328 236 -26 14 -132 78
-237 141 -104 62 -210 123 -235 135 -216 100 -478 209 -571 237 -346 103 -359
106 -544 132 -22 3 -65 9 -95 14 -99 17 -172 22 -358 23 -101 1 -184 1 -185 1z"/>
</g>
</svg>
